<svg width="206" height="31" viewBox="0 0 206 31" fill="none" xmlns="http://www.w3.org/2000/svg">
<g clip-path="url(#clip0_585_229)">
<path d="M21.1724 13.7453L33.189 1.75473L45.2057 13.7453" stroke="#080808" stroke-width="2" stroke-linecap="square"/>
<path d="M37.7666 1.1698H41.4901V4.71631" stroke="#080808" stroke-width="2" stroke-linecap="square"/>
<path d="M198.366 16.2368H193.33V14.6459H205.621V16.2368H200.609V29.83H198.366V16.2368Z" fill="#080808"/>
<path d="M182.812 14.6459H185.032V28.2391H192.334V29.83H182.812V14.6459Z" fill="#080808"/>
<path d="M176.635 27.3032H179.29V29.83H176.635V27.3032Z" fill="#080808"/>
<path d="M168.204 30.064C166.937 30.064 165.426 29.9392 163.672 29.6896V27.7945C165.442 28.1845 166.998 28.3794 168.341 28.3794C169.47 28.3794 170.294 28.2547 170.813 28.0051C171.332 27.74 171.592 27.2564 171.592 26.5545V24.5893C171.592 23.9342 171.409 23.474 171.042 23.2089C170.676 22.9437 170.035 22.8111 169.12 22.8111H167.38C165.93 22.8111 164.9 22.5148 164.29 21.9221C163.68 21.3294 163.375 20.4091 163.375 19.1613V17.9447C163.375 17.1181 163.55 16.4474 163.901 15.9327C164.267 15.4179 164.87 15.0358 165.709 14.7862C166.563 14.5367 167.731 14.4119 169.211 14.4119C170.203 14.4119 171.477 14.4977 173.034 14.6693V16.3772C171.294 16.112 169.967 15.9794 169.051 15.9794C167.632 15.9794 166.693 16.1198 166.236 16.4006C165.762 16.6969 165.526 17.1883 165.526 17.8745V19.6059C165.526 20.1362 165.709 20.5261 166.075 20.7757C166.457 21.0096 167.105 21.1266 168.021 21.1266H169.806C170.828 21.1266 171.622 21.2514 172.187 21.501C172.766 21.7505 173.171 22.1327 173.4 22.6474C173.644 23.1465 173.766 23.825 173.766 24.6828V25.7825C173.766 26.8587 173.568 27.7087 173.171 28.3327C172.789 28.9566 172.194 29.4011 171.386 29.6662C170.577 29.9314 169.516 30.064 168.204 30.064Z" fill="#080808"/>
<path d="M153.318 14.6459H155.882L161.65 29.83H159.338L157.644 25.221H151.281L149.61 29.83H147.413L153.318 14.6459ZM157.095 23.6534L154.577 16.7983H154.371L151.854 23.6534H157.095Z" fill="#080808"/>
<path d="M139.266 16.2368H134.23V14.6459H146.521V16.2368H141.509V29.83H139.266V16.2368Z" fill="#080808"/>
<path d="M119.062 14.6459H121.74L129.82 27.1863V14.6459H131.766V29.83H129.088L121.008 17.0791V29.83H119.062V14.6459Z" fill="#080808"/>
<path d="M109.342 30.064C105.191 30.064 103.116 28.6914 103.116 25.9462V18.7636C103.116 15.8625 105.191 14.4119 109.342 14.4119C113.538 14.4119 115.636 15.8547 115.636 18.7402V25.9462C115.636 27.4124 115.056 28.4652 113.896 29.1047C112.737 29.7442 111.218 30.064 109.342 30.064ZM109.387 28.5432C112.118 28.5432 113.484 27.6698 113.484 25.9228V18.6934C113.484 16.8217 112.111 15.8859 109.364 15.8859C108.037 15.8859 107.014 16.0964 106.297 16.5176C105.595 16.9387 105.244 17.664 105.244 18.6934V25.9228C105.244 27.6698 106.625 28.5432 109.387 28.5432Z" fill="#080808"/>
<path d="M83.813 14.6459H87.1319L91.8928 27.2798L91.9614 27.3032L96.4706 14.6459H99.675V29.83H97.7294V16.9855H97.615L92.8312 29.83H90.8399L85.9188 16.9855H85.8043V29.83H83.813V14.6459Z" fill="#080808"/>
<path d="M70.5356 14.6459H80.5152V16.2368H72.7559V21.1968H79.7599V22.7878H72.7559V28.2391H80.7441V29.83H70.5356V14.6459Z" fill="#080808"/>
<path d="M56.0732 14.6459H61.2918C62.6045 14.6459 63.6265 14.7317 64.3589 14.9032C65.1068 15.0592 65.6487 15.3478 65.984 15.7689C66.3354 16.19 66.5105 16.8061 66.5105 17.6172V20.2376C66.5105 21.1422 66.1442 21.8441 65.4118 22.3432C64.6948 22.8268 63.7792 23.0685 62.6651 23.0685L67.426 29.83H64.7022L60.4449 23.3493H58.2933V29.83H56.0732V14.6459ZM61.2002 21.8519C62.2989 21.8519 63.0851 21.7193 63.5578 21.4542C64.0465 21.1734 64.2902 20.6743 64.2902 19.9568V17.8512C64.2902 16.7125 63.3289 16.1432 61.4062 16.1432H58.2933V21.8519H61.2002Z" fill="#080808"/>
<path d="M46.3964 30.064C45.5876 30.064 44.8781 30.0094 44.2677 29.9002C43.6726 29.791 43.0851 29.6038 42.5052 29.3387C41.8949 29.0579 41.4219 28.629 41.0861 28.0519C40.7657 27.4748 40.6055 26.7729 40.6055 25.9463V14.6459H42.7341V25.9229C42.7341 26.8743 43.047 27.5528 43.6726 27.9583C44.2982 28.3483 45.2214 28.5432 46.4421 28.5432C47.6629 28.5432 48.5708 28.3483 49.1659 27.9583C49.7763 27.5528 50.0815 26.8743 50.0815 25.9229V14.6459H52.2101V25.9463C52.2101 28.6914 50.2722 30.064 46.3964 30.064Z" fill="#080808"/>
<path d="M19.828 30.064C19.0193 30.064 18.3097 30.0094 17.6994 29.9002C17.1043 29.791 16.5168 29.6038 15.9369 29.3387C15.3266 29.0579 14.8535 28.629 14.5178 28.0519C14.1974 27.4748 14.0371 26.7729 14.0371 25.9463V14.6459H16.1658V25.9229C16.1658 26.8743 16.4786 27.5528 17.1043 27.9583C17.7299 28.3483 18.6531 28.5432 19.8738 28.5432C21.0946 28.5432 22.0024 28.3483 22.5976 27.9583C23.2079 27.5528 23.5132 26.8743 23.5132 25.9229V14.6459H25.6418V25.9463C25.6418 28.6914 23.7039 30.064 19.828 30.064Z" fill="#080808"/>
<path d="M0 14.6459H5.31022C6.57672 14.6459 7.58383 14.7785 8.33156 15.0436C9.01822 15.2932 9.476 15.6051 9.70489 15.9795C9.94906 16.3538 10.0711 16.8685 10.0711 17.5236V19.5591C10.0711 20.1674 9.90328 20.6431 9.56756 20.9863C9.23183 21.3138 8.72067 21.5555 8.034 21.7115V21.8051C8.84272 21.9455 9.49128 22.234 9.97956 22.6708C10.4831 23.0919 10.7349 23.6222 10.7349 24.2617V26.8119C10.7349 27.9193 10.3305 28.6992 9.52178 29.1515C8.71306 29.6038 7.36261 29.83 5.47044 29.83H0V14.6459ZM5.37889 21.2904C6.30972 21.2904 6.9735 21.15 7.37022 20.8693C7.78222 20.5729 7.98822 20.1128 7.98822 19.4889V17.7108C7.98822 17.1337 7.78222 16.7281 7.37022 16.4942C6.95822 16.2602 6.27156 16.1432 5.31022 16.1432H2.22022V21.2904H5.37889ZM5.47044 28.2625C6.58439 28.2625 7.37022 28.1455 7.828 27.9115C8.28578 27.6776 8.51467 27.2798 8.51467 26.7183V24.4255C8.51467 24.02 8.43072 23.7002 8.26289 23.4663C8.11028 23.2167 7.86617 23.0373 7.53044 22.9281C7.19472 22.8346 6.89717 22.78 6.63778 22.7644C6.37839 22.7332 5.98928 22.7176 5.47044 22.7176H2.22022V28.2625H5.47044Z" fill="#080808"/>
<path d="M32.0444 14.6227V29.8302H34.3333V14.6227H32.0444Z" fill="#080808"/>
<path d="M29.5268 13.4528H37.7668V15.7924H27.4668L29.5268 13.4528Z" fill="#080808"/>
</g>
<defs>
<clipPath id="clip0_585_229">
<rect width="206" height="31" fill="white"/>
</clipPath>
</defs>
</svg>
